<svg xmlns="http://www.w3.org/2000/svg" xmlns:xlink="http://www.w3.org/1999/xlink" viewBox="0 0 708.27287 700.19848"><defs><style>.cls-1{fill:none;}.cls-2{isolation:isolate;}.cls-3{fill:#ffc7cd;}.cls-4{clip-path:url(#clip-path);}.cls-5{fill:#f59fad;}.cls-6{fill:#e37891;}.cls-7{fill:#3d2a37;}.cls-8{fill:#fff;}.cls-9{fill:#f5879b;}.cls-10{fill:#a64976;}.cls-11{fill:#c76386;}.cls-12{fill:#1bacd1;}.cls-13{fill:#b9d6c5;}.cls-14{fill:#628b83;}.cls-15{fill:#c3cccd;}.cls-16,.cls-21{opacity:0.3;mix-blend-mode:multiply;}.cls-17,.cls-21{fill:#00789c;}.cls-18{fill:#eff;opacity:0.4;}.cls-19{fill:#249bd1;}.cls-20{fill:#15b7d1;opacity:0.6;}.cls-22{fill:#8eae9e;}</style><clipPath id="clip-path" transform="translate(-42.22579 -63)"><path id="SVGID" class="cls-1" d="M298.40446,253.69825c-21.038-6.95495-38.95923-21.78832-48.91548-40.48875-21.15342,21.47087-56.563,29.34929-85.768,19.10445,8.31131,27.99294-9.43679,60.54554-38.52635,70.67494,14.89108,6.69522,25.85739,20.51854,28.42581,35.78478s-3.34761,31.60027-15.324,42.24913c32.29288,15.728,48.1363,55.87043,29.78218,88.16331a58.85881,58.85881,0,0,1,15.58369,47.21282c-2.1644,16.85348-12.26494,32.668-27.09831,42.39342,12.69782,8.39788,20.6051,22.76951,20.57625,37.31429-.05772,14.54478-8.05158,28.88755-20.80712,37.19886,14.19847,4.906,26.0594,15.46826,32.03315,28.48353s3.28989,28.33924-2.655,41.35451c22.9138,3.261,44.09608,24.15472,43.25918,45.85646a171.5569,171.5569,0,0,1,65.01863-5.916c-52.494-28.801-82.44928-86.51836-84.23852-143.48543s21.67288-112.69319,60.0838-159.79058A236.582,236.582,0,0,1,253.8755,314.619c1.847-12.669,4.84826-25.48223,11.86092-36.44853S284.37914,258.2002,298.40446,253.69825Z"/></clipPath></defs><title>seahorse</title><g class="cls-2"><g id="Calque_1" data-name="Calque 1"><path class="cls-3" d="M298.40446,253.69825c-21.038-6.95495-38.95923-21.78832-48.91548-40.48875-21.15342,21.47087-56.563,29.34929-85.768,19.10445,8.31131,27.99294-9.43679,60.54554-38.52635,70.67494,14.89108,6.69522,25.85739,20.51854,28.42581,35.78478s-3.34761,31.60027-15.324,42.24913c32.29288,15.728,48.1363,55.87043,29.78218,88.16331a58.85881,58.85881,0,0,1,15.58369,47.21282c-2.1644,16.85348-12.26494,32.668-27.09831,42.39342,12.69782,8.39788,20.6051,22.76951,20.57625,37.31429-.05772,14.54478-8.05158,28.88755-20.80712,37.19886,14.19847,4.906,26.0594,15.46826,32.03315,28.48353s3.28989,28.33924-2.655,41.35451c22.9138,3.261,44.09608,24.15472,43.25918,45.85646a171.5569,171.5569,0,0,1,65.01863-5.916c-52.494-28.801-82.44928-86.51836-84.23852-143.48543s21.67288-112.69319,60.0838-159.79058A236.582,236.582,0,0,1,253.8755,314.619c1.847-12.669,4.84826-25.48223,11.86092-36.44853S284.37914,258.2002,298.40446,253.69825Z" transform="translate(-42.22579 -63)"/><g class="cls-4"><path class="cls-5" d="M249.83528,247.63792a47.48941,47.48941,0,0,0,2.7993-10.73543,71.32109,71.32109,0,0,0-.11544-21.78832,46.57053,46.57053,0,0,0-2.94358-10.70657,65.98938,65.98938,0,0,0-1.58723,10.87972q-.38959,5.36772-.34631,10.73544c.02886,3.57848.17316,7.1281.4906,10.73543A69.68286,69.68286,0,0,0,249.83528,247.63792Z" transform="translate(-42.22579 -63)"/><path class="cls-5" d="M208.10561,271.38862a129.63735,129.63735,0,0,0-11.4569-12.669q-6.06033-5.97375-12.49581-11.428c-4.29995-3.66506-8.74419-7.1281-13.33272-10.47571a129.70231,129.70231,0,0,0-14.37163-9.23478,126.05475,126.05475,0,0,0,11.4569,12.669q6.06033,5.97375,12.49582,11.42805c4.29994,3.665,8.74418,7.12809,13.33271,10.44684A125.86,125.86,0,0,0,208.10561,271.38862Z" transform="translate(-42.22579 -63)"/><path class="cls-5" d="M189.40518,323.42085a124.63335,124.63335,0,0,0-16.62261-8.39788c-5.68516-2.453-11.51462-4.53082-17.40179-6.43549-5.916-1.8181-11.86092-3.4919-17.92125-4.73283a119.2913,119.2913,0,0,0-18.4407-2.65527c5.6563,2.68386,11.428,4.90625,17.19978,6.98408,5.77174,2.13554,11.60119,4.01136,17.43065,5.91576,5.85831,1.78924,11.71663,3.60733,17.66152,5.166C177.25567,320.85243,183.22942,322.35308,189.40518,323.42085Z" transform="translate(-42.22579 -63)"/><path class="cls-5" d="M191.74273,369.10416a70.68008,70.68008,0,0,0-16.738-.606,100.09712,100.09712,0,0,0-16.536,2.59728,95.80813,95.80813,0,0,0-15.84342,5.39658,71.17213,71.17213,0,0,0-14.51592,8.34016c5.48315-1.24093,10.76429-2.68386,16.01657-4.09794l15.75685-4.04021c5.25228-1.29864,10.50456-2.56843,15.81456-3.75163C180.97844,371.7303,186.3173,370.5471,191.74273,369.10416Z" transform="translate(-42.22579 -63)"/><path class="cls-5" d="M211.16463,567.47882a145.56686,145.56686,0,0,0-17.83467-4.8194c-5.97375-1.3275-12.00521-2.3087-18.06554-3.23218-6.06033-.808-12.12065-1.55837-18.23869-1.99125a145.72785,145.72785,0,0,0-18.46957-.37516,145.56783,145.56783,0,0,0,17.83467,4.8194c5.97375,1.3275,12.00522,2.3087,18.06555,3.23218,6.06032.808,12.12065,1.55837,18.23869,1.96239A140.53483,140.53483,0,0,0,211.16463,567.47882Z" transform="translate(-42.22579 -63)"/><path class="cls-5" d="M207.47072,629.20756a69.83448,69.83448,0,0,0-15.526-2.74157,98.68986,98.68986,0,0,0-15.728.11543,100.48688,100.48688,0,0,0-15.49712,2.62614,70.69229,70.69229,0,0,0-14.80451,5.42544c5.31-.11544,10.44685-.54832,15.55483-.9812l15.26625-1.3275,15.26625-1.38521C197.11045,630.47735,202.2473,630.01561,207.47072,629.20756Z" transform="translate(-42.22579 -63)"/><path class="cls-5" d="M217.629,689.06049a63.14175,63.14175,0,0,0-11.74549,3.00131,115.22873,115.22873,0,0,0-11.08173,4.44424,111.40158,111.40158,0,0,0-10.53343,5.59858,63.83548,63.83548,0,0,0-9.86967,7.07038,65.74461,65.74461,0,0,0,11.77435-2.97244,115.23028,115.23028,0,0,0,11.08173-4.44424,111.40167,111.40167,0,0,0,10.53343-5.59859A70.18055,70.18055,0,0,0,217.629,689.06049Z" transform="translate(-42.22579 -63)"/><path class="cls-5" d="M245.65077,722.27685a57.54281,57.54281,0,0,0-8.39788,8.8019A91.06779,91.06779,0,0,0,224.988,751.62614a55.879,55.879,0,0,0-3.72277,11.57234,72.2638,72.2638,0,0,0,7.64755-9.35022c2.3087-3.23188,4.4731-6.55063,6.46435-9.92739,2.02011-3.37647,3.89592-6.86837,5.6563-10.44685A71.23631,71.23631,0,0,0,245.65077,722.27685Z" transform="translate(-42.22579 -63)"/></g><path class="cls-6" d="M216.93637,445.37769c4.99256,32.2063-11.9475,63.40255-16.2763,95.69542-7.09924,52.78255-5.05027,111.27913,14.19848,161.52211,26.23255,68.424,140.74385,46.69337,139.07-27.27146-.75033-32.75462-59.88179-33.88011-59.04489-22.27892.72147,9.7831,17.777,4.67511,26.146,9.86968,10.10054,6.26233,10.79315,15.90114,6.43549,24.52989-5.916,11.83206-21.24,21.73059-34.717,18.383-36.968-9.17706-38.43978-56.67847-19.01788-83.71906,19.85478-27.61777,50.09869-45.85647,69.92462-73.38766C378.71821,500.06491,363.25,427.8316,315.48881,395.50986c-1.93353-1.29864-3.86706-2.53956-5.88717-3.72277a94.61357,94.61357,0,0,0-16.82462-7.64755.22336.22336,0,0,0-.08658-.02886c67.52935,7.6187,124.23668-1.52951,127.06483-4.38652,8.10929-8.167,16.18973-32.43717-8.54217-33.82239-16.9112-.95234-41.90283-.95234-55.66842-15.98772a35.72731,35.72731,0,0,1-7.82071-13.85217c-10.822-34.94788-25.85739-63.66228-62.53679-76.21581-30.64793-10.38913-64.49918,2.07783-85.768,28.31038-19.50848,24.01043-28.45468,59.53549-14.83337,99.56249C193.70513,394.2978,212.60757,417.55791,216.93637,445.37769Z" transform="translate(-42.22579 -63)"/><circle class="cls-7" cx="250.89754" cy="273.75357" r="10.47571"/><circle class="cls-8" cx="245.4721" cy="268.32813" r="5.42543"/><path class="cls-9" d="M250.67219,671.05267c3.059,12.26494,9.86967,23.54869,18.29641,29.75331,6.72407,9.52337,20.22994,13.56359,29.95532,8.31131,7.87842-.43288,16.2763-1.06778,22.62522-5.8006,4.79054-3.57848,7.4744-10.418,5.94489-15.84342-5.916,11.83206-21.24,21.73059-34.717,18.383-36.968-9.17706-38.43978-56.67847-19.01788-83.71907,19.85478-27.61777,50.09869-45.85646,69.92461-73.38765,35.06332-48.65576,19.59506-120.88907-28.16608-153.21081-1.93353-1.29864-3.86706-2.53956-5.88717-3.72277-6.20462-.63489-12.38038-1.09663-18.585-1.41407,13.99646,8.85962,25.02049,22.33662,28.5701,36.70825a52.45637,52.45637,0,0,1,9.4368,48.396c6.37777,16.0743,3.75163,35.38076-7.90728,51.71478.46173,17.31522-8.22473,34.60157-21.35544,42.278a66.13832,66.13832,0,0,1-39.30554,48.74233C261.37876,636.91283,257.97344,655.84414,250.67219,671.05267Z" transform="translate(-42.22579 -63)"/><path class="cls-10" d="M265.96729,406.7359a181.44641,181.44641,0,0,1,1.29864,116.01194,201.15949,201.15949,0,0,1-11.4569,27.09832c-4.44424,8.773-9.32135,17.37293-13.881,26.146a196.31893,196.31893,0,0,0-12.12065,27.21375,113.261,113.261,0,0,0-3.83821,59.16032,102.78782,102.78782,0,0,0,9.86968,28.25266c4.73314,8.8019,11.19717,16.94006,19.65277,22.59636,8.427,5.74288,18.5276,8.48446,28.51239,9.03277a76.63845,76.63845,0,0,0,29.5513-4.12679c9.37907-3.34761,18.20983-9.20593,23.7507-17.71924,5.48316-8.3113,7.90729-19.191,4.32881-28.7144a27.85984,27.85984,0,0,0-8.65761-11.97636,23.10747,23.10747,0,0,0-13.65016-5.19456,23.09234,23.09234,0,0,1,13.44815,5.45429,27.45021,27.45021,0,0,1,8.22473,11.9475c3.261,9.32136.66406,19.79706-4.81941,27.67549-5.45429,8.10929-13.99646,13.65016-23.17353,16.7669a75.024,75.024,0,0,1-28.801,3.63619c-9.66766-.69261-19.27761-3.43418-27.24261-8.88847-7.99386-5.39629-14.16962-13.217-18.72929-21.75946a100.55862,100.55862,0,0,1-9.46565-27.55976,114.06336,114.06336,0,0,1,3.75163-57.74654,195.29776,195.29776,0,0,1,11.86092-26.8963c4.53082-8.74418,9.35022-17.37293,13.79446-26.23255a177.28355,177.28355,0,0,0,19.53733-86.25864A184.84751,184.84751,0,0,0,265.96729,406.7359Z" transform="translate(-42.22579 -63)"/><path class="cls-10" d="M320.07734,427.36986a130.39289,130.39289,0,0,1-25.36679-1.26978,120.31074,120.31074,0,0,1-24.41445-6.23348l-.95234-.3463-.63489.75032a38.35953,38.35953,0,0,1-16.65147,11.08174,39.71441,39.71441,0,0,1-20.40309,1.29864,34.90765,34.90765,0,0,0,20.98027.66375,36.12046,36.12046,0,0,0,18.20983-11.226l-1.58723.404a96.69951,96.69951,0,0,0,25.13593,5.94489A90.02878,90.02878,0,0,0,320.07734,427.36986Z" transform="translate(-42.22579 -63)"/><path class="cls-10" d="M331.96713,478.392c-4.76169.11544-9.46566.202-14.19848-.08657a127.172,127.172,0,0,1-14.05419-1.29864,134.01151,134.01151,0,0,1-27.2426-6.81066l-.57718-.23087-.54831.28859a114.49984,114.49984,0,0,1-23.66413,8.85962,123.24965,123.24965,0,0,1-25.2225,3.52076,89.55381,89.55381,0,0,0,25.7131-1.41408,93.98418,93.98418,0,0,0,24.501-8.39788l-1.15435.05772a109.8995,109.8995,0,0,0,27.96407,6.40663,131.80416,131.80416,0,0,0,14.31392.4906A116.58992,116.58992,0,0,0,331.96713,478.392Z" transform="translate(-42.22579 -63)"/><path class="cls-10" d="M327.81147,525.02768c-5.25228-.63489-10.56228-.92348-15.87228-1.09663-5.31-.08658-10.62.02886-15.93.31745a204.2984,204.2984,0,0,0-31.57141,4.44423l.92348.11544a106.08761,106.08761,0,0,0-25.77081-8.571,100.796,100.796,0,0,0-26.954-1.8181,138.678,138.678,0,0,1,26.52114,3.86706,131.31357,131.31357,0,0,1,24.99163,9.09049l.43288.202.49059-.11543a299.03368,299.03368,0,0,1,31.16739-4.87712C306.65805,525.48942,317.22033,525.0854,327.81147,525.02768Z" transform="translate(-42.22579 -63)"/><path class="cls-10" d="M303.07957,571.34588a91.7796,91.7796,0,0,0-33.10092-1.29864A96.29288,96.29288,0,0,0,238.263,580.3498l1.8181.49059a56.51244,56.51244,0,0,0-14.2562-15.35282,53.50141,53.50141,0,0,0-18.67157-8.97505,65.27294,65.27294,0,0,1,17.54608,10.44684,61.83515,61.83515,0,0,1,13.04413,15.324l.66375,1.09663,1.15435-.606a110.43724,110.43724,0,0,1,30.82108-10.2737A115.821,115.821,0,0,1,303.07957,571.34588Z" transform="translate(-42.22579 -63)"/><path class="cls-10" d="M268.276,620.11708a44.51964,44.51964,0,0,0-12.23609-.46174,51.32856,51.32856,0,0,0-12.06293,2.68385,50.68077,50.68077,0,0,0-20.57625,13.62131l2.22212.31744a39.731,39.731,0,0,0-9.00391-11.60119,37.40511,37.40511,0,0,0-12.38038-7.50326,49.31317,49.31317,0,0,1,11.1106,8.8019,45.61609,45.61609,0,0,1,7.8207,11.51433l.8369,1.76038,1.38522-1.44293a57.07709,57.07709,0,0,1,19.47962-13.1307,59.69927,59.69927,0,0,1,11.39918-3.43419A66.38841,66.38841,0,0,1,268.276,620.11708Z" transform="translate(-42.22579 -63)"/><path class="cls-10" d="M255.14528,672.84191a22.77205,22.77205,0,0,0-11.65891,4.76168,24.57532,24.57532,0,0,0-7.763,10.30256l2.1644-.6349a33.53425,33.53425,0,0,0-25.62651-5.94489,47.35683,47.35683,0,0,1,23.95271,8.28245l1.50065,1.06777.66375-1.70266a27.03939,27.03939,0,0,1,6.52207-9.66766,29.73668,29.73668,0,0,1,4.73282-3.69392A28.15917,28.15917,0,0,1,255.14528,672.84191Z" transform="translate(-42.22579 -63)"/><path class="cls-10" d="M271.59474,701.98919a19.21192,19.21192,0,0,0-5.88717,15.69913l1.01005-1.50065a18.708,18.708,0,0,0-8.91734,5.59858,16.38964,16.38964,0,0,0-4.24222,9.32136,24.09019,24.09019,0,0,1,13.9676-12.20723l1.12549-.3463-.11543-1.12549A28.07244,28.07244,0,0,1,271.59474,701.98919Z" transform="translate(-42.22579 -63)"/><path class="cls-10" d="M297.481,709.86761c.25972,4.61739,3.86706,8.97506,8.571,10.47571l-.75033-2.13555c-3.4919,4.906-5.02141,11.34147-3.43418,17.05549a40.398,40.398,0,0,1,5.74288-15.4394l1.06777-1.61609-1.8181-.51945A16.1688,16.1688,0,0,1,297.481,709.86761Z" transform="translate(-42.22579 -63)"/><path class="cls-10" d="M325.99338,694.80337a13.3672,13.3672,0,0,0,12.14951,3.6362l-1.67381-1.61609a15.11223,15.11223,0,0,0,3.86707,12.89984,30.96771,30.96771,0,0,1-1.01006-12.467l.28859-2.02011-1.96239.404A23.54476,23.54476,0,0,1,325.99338,694.80337Z" transform="translate(-42.22579 -63)"/><path class="cls-11" d="M221.52491,326.249c.08657,11.54348.17315,23.26011,3.11673,34.42842S233.761,382.61,243.60181,388.69921c12.72668,7.87843,28.801,6.60864,43.69206,5.56973,9.35021-.66375,19.24875-.95234,28.19494,1.24092a95.35958,95.35958,0,0,0-22.74065-11.39918.22183.22183,0,0,0-.08658-.02913s-24.38559,4.93483-35.23646,1.41407c-11.39918-3.69391-20.51853-12.72668-26.146-23.2601C225.68056,351.67351,223.28529,339.66829,221.52491,326.249Z" transform="translate(-42.22579 -63)"/><path class="cls-9" d="M199.448,268.12759c14.1119-11.51462,31.68684-18.87358,49.89668-19.9125,32.84119-1.96239,66.0864,16.56489,81.72782,45.539,4.76168,8.83076,8.02271,18.49842,13.99646,26.57886a35.36046,35.36046,0,0,0,10.50457,9.55223,35.72743,35.72743,0,0,1-7.82071-13.85218c-10.822-34.94787-25.85739-63.66227-62.53679-76.21581C254.53925,229.42808,220.688,241.895,199.448,268.12759Z" transform="translate(-42.22579 -63)"/><path class="cls-12" d="M354.56268,450.37031c1.97474,19.25367,9.89889,38.30124,24.354,52.82051,3.18791-1.66861,6.571-3.453,10.13631-5.28507,7.19409-3.72544,15.0906-7.81766,23.58155-12.16734-5.11882-14.1777-9.40382-33.23321-8.79809-52.83565-13.66494,4.89572-26.14747,9.34162-37.12549,13.1977C362.40259,447.61572,358.34934,449.04945,354.56268,450.37031Z" transform="translate(-42.22579 -63)"/><path class="cls-13" d="M403.83643,432.90276c-.60573,19.60244,3.67927,38.65795,8.79809,52.83565,21.491-11.06912,46.77424-23.97244,73.8684-37.7875a146.47428,146.47428,0,0,1-7.10212-42.2026C452.19642,415.54538,426.431,424.81561,403.83643,432.90276Z" transform="translate(-42.22579 -63)"/><path class="cls-12" d="M479.4008,405.74831a146.47428,146.47428,0,0,0,7.10212,42.2026c12.87877-6.57181,26.14248-13.3416,39.63009-20.20709l.0272-.01179a146.83358,146.83358,0,0,1-6.21662-36.59764C506.21381,396.08819,492.638,400.97532,479.4008,405.74831Z" transform="translate(-42.22579 -63)"/><path class="cls-13" d="M519.94359,391.13439a146.83358,146.83358,0,0,0,6.21662,36.59764c23.62666-12.05792,47.826-24.429,71.4452-36.57879a150.99928,150.99928,0,0,1-4.47906-26.23794C568.99331,373.50854,544.25105,382.4005,519.94359,391.13439Z" transform="translate(-42.22579 -63)"/><path class="cls-12" d="M593.12635,364.9153a150.99928,150.99928,0,0,0,4.47906,26.23794c11.68823-5.99106,23.21459-11.91073,34.42811-17.72875a149.65411,149.65411,0,0,1-3.58886-21.08441C616.92669,356.43232,605.10283,360.62448,593.12635,364.9153Z" transform="translate(-42.22579 -63)"/><path class="cls-13" d="M628.44466,352.34008a149.65411,149.65411,0,0,0,3.58886,21.08441c16.7033-8.6115,32.75216-16.9393,47.72853-24.80388-.94362-4.32924-1.73939-8.82018-2.31416-13.471C662.06106,340.50324,645.58226,346.29463,628.44466,352.34008Z" transform="translate(-42.22579 -63)"/><path class="cls-12" d="M677.44789,335.14966c.57477,4.65077,1.37054,9.14171,2.31416,13.471,9.29635-4.85745,18.16175-9.53081,26.524-13.95241-.61319-2.90389-1.10635-5.89233-1.53334-8.94225C696.13882,328.68809,686.99262,331.81694,677.44789,335.14966Z" transform="translate(-42.22579 -63)"/><path class="cls-13" d="M704.7527,325.726c.427,3.04992.92015,6.03836,1.53334,8.94225,17.327-9.23184,32.39788-17.39268,44.21262-24.04818C738.04451,314.54193,722.496,319.67483,704.7527,325.726Z" transform="translate(-42.22579 -63)"/><path class="cls-14" d="M280.30361,499.8861c.67635,1.27809,1.3808,2.66783,2.037,4.11361.37849.79873.75145,1.65985,1.16463,2.53867.38925.76023.728,1.54234,1.041,2.33431.30368.70116.60763,1.403.89792,2.14247.60914,1.3372,1.19105,2.75,1.67452,4.17292.26429.6854.52926,1.37178.78409,2.03.16146.442.311.85667.44752,1.247l.12781.2951c9.76631-4.13344,21.54372-8.144,31.9192-12.06186-1.6611-3.315-3.197-6.71683-4.56515-10.15872-1.32535-2.85234-2.59811-5.791-3.71267-8.73439C301.77847,491.73938,290.03325,495.73724,280.30361,499.8861Z" transform="translate(-42.22579 -63)"/><path class="cls-3" d="M315.26016,550.0939c-14.1795-6.73512-32.906-5.19594-49.23361,3.92131C247.64986,533.65337,217.675,487.895,236.4667,467.96508c20.24618-21.46726,87.25654-9.70227,104.8896,7.81133a33.57265,33.57265,0,0,1,6.52311,8.99986,23.55458,23.55458,0,0,0-8.12224,14.26915c-1.04969,6.46325.43722,12.48879,1.90371,18.68137a50.41855,50.41855,0,0,0-21.70263,15.35569,26.19352,26.19352,0,0,0-4.89615,8.11194A12.90178,12.90178,0,0,0,315.26016,550.0939Z" transform="translate(-42.22579 -63)"/><path class="cls-5" d="M315.26016,550.0939c-30.94626-17.75558-57.74337-59.93922-61.78088-73.77079,34.04805,7.11065,65.93487,18.68381,88.20436,41.42142-23.1847-28.46388-51.82127-40.35756-81.427-50.116,29.87935-7.11591,72.43714,2.12738,87.8072,17.47449-1.60551-3.99575-3.22082-5.9135-6.667-9.33159-17.63306-17.5136-84.64342-29.27859-104.8896-7.81133-18.44457,19.57847,10.05352,64.03936,28.536,84.92272-12.94912-18.87539-21.50608-55.07383-17.76768-71.699C267.97785,516.165,292.14313,541.25858,315.26016,550.0939Z" transform="translate(-42.22579 -63)"/><path class="cls-14" d="M312.33157,432.47793c-9.138,5.59-8.06,30.25917.23146,55.16639.98917,2.9664,2.06725,5.95813,3.26909,8.89524,1.58119,3.41346,3.279,6.74388,5.07742,9.93685l.01141.02634C333.32173,528.8629,350.073,545.71864,360.1638,542.918c9.46305-2.62516,26.46281-19.56137,30.142-31.466,1.18483-3.779.29054-9.09254-1.25286-13.5463-3.56529,1.832-6.9484,3.61646-10.13631,5.28507-14.45509-14.51927-22.37924-33.56684-24.354-52.82051,3.78666-1.32086,7.83991-2.75459,12.14826-4.26985-1.89048-5.10485-6.14066-11.81392-10.80831-14.08213C344.71445,426.58546,320.71951,427.37044,312.33157,432.47793Z" transform="translate(-42.22579 -63)"/><path class="cls-15" d="M354.05655,440.694c.24948-.003.26861,4.163,1.13623,10.78879q.17028,1.24053.35644,2.59613.24528,1.34423.50974,2.79352c.30533,1.93881.85281,3.96511,1.32285,6.11676a102.73523,102.73523,0,0,0,4.56384,13.56305,90.13776,90.13776,0,0,0,6.61346,12.67749q.89727,1.38588,1.74835,2.70037c.58374.864,1.202,1.66694,1.77036,2.4646,1.11356,1.615,2.30972,2.99561,3.35016,4.29966l.7666.95089.7771.85953q.75408.839,1.4201,1.58014c.86442,1.01,1.68186,1.80933,2.337,2.47766a11.93421,11.93421,0,0,1,1.93866,2.19132,11.85922,11.85922,0,0,1-2.311-1.7995,32.79982,32.79982,0,0,1-2.52289-2.33l-1.51294-1.52292-.82327-.83551-.81238-.93c-1.10117-1.27835-2.35706-2.64218-3.527-4.24921-.59662-.79373-1.24237-1.59512-1.85248-2.45959l-1.824-2.70844a83.334,83.334,0,0,1-6.81406-12.82535,93.6374,93.6374,0,0,1-4.5278-13.79934c-.44327-2.18964-.95429-4.25229-1.21463-6.22342q-.2261-1.47157-.43622-2.83948l-.2713-2.63605c-.20065-1.676-.25113-3.20337-.31046-4.54171l-.07446-1.86469.02338-1.56991A11.89653,11.89653,0,0,1,354.05655,440.694Z" transform="translate(-42.22579 -63)"/><g class="cls-16"><path class="cls-17" d="M412.18162,484.43225c-5.79056-16.5781-9.05854-34.24492-8.44148-51.83824" transform="translate(-42.22579 -63)"/></g><g class="cls-16"><path class="cls-17" d="M486.358,447.51811a145.90109,145.90109,0,0,1-7.08788-42.632" transform="translate(-42.22579 -63)"/></g><g class="cls-16"><path class="cls-17" d="M526.50241,428.90335a135.39971,135.39971,0,0,1-6.3459-38.13266" transform="translate(-42.22579 -63)"/></g><g class="cls-16"><path class="cls-17" d="M597.764,391.72778c-2.65462-9.94482-4.24438-16.60942-4.78712-26.89182" transform="translate(-42.22579 -63)"/></g><g class="cls-16"><path class="cls-17" d="M632.149,373.48574c-2.1835-8.43146-2.3167-13.2045-3.6016-21.25528" transform="translate(-42.22579 -63)"/></g><g class="cls-16"><path class="cls-17" d="M679.703,348.357a130.04011,130.04011,0,0,1-2.41549-13.43321" transform="translate(-42.22579 -63)"/></g><g class="cls-16"><path class="cls-17" d="M706.51579,334.47357a70.96912,70.96912,0,0,1-1.6508-8.89264" transform="translate(-42.22579 -63)"/></g><path class="cls-18" d="M493.76949,411.865c-.39708-1.90321-1.76873-3.93583-9.11968-1.724-26.9091,8.0965-83.21425,30.05529-86.32315,31.12278-8.60929,2.95844-8.79161,7.31613-6.40086,9.36533,2.86813,2.46727,9.74957-.51269,13.05219-1.8216,2.27966-.91238,59.73446-21.31269,83.0791-30.87819C493.9175,415.52818,493.98541,412.9222,493.76949,411.865Z" transform="translate(-42.22579 -63)"/><path class="cls-18" d="M387.01889,447.65633c6.43736,4.87148-4.21257,12.48638-6.63016,4.00931C379.35743,448.06615,384.026,445.3758,387.01889,447.65633Z" transform="translate(-42.22579 -63)"/><path class="cls-14" d="M243.68635,185.552c4.2498,8.727,3.59412,17.77943-1.46446,20.219-5.05933,2.43961-12.60564-2.65738-16.85579-11.38481-4.2498-8.727-3.59463-17.77935,1.4648-20.21859C231.88952,171.72755,239.436,176.82506,243.68635,185.552Z" transform="translate(-42.22579 -63)"/><path class="cls-19" d="M236.63516,140.29343c.32844-7.59614-1.02881-16.27816-2.84139-23.67077-2.01029-8.19848-3.71314-13.67463-8.46277-19.08826-.58442-1.12817-.66278-2.44217-2.38965-4.241C198.87594,68.223,168.692,65.96832,137.73022,73.45691c-10.24929,2.4791-24.01371,4.25366-31.90687-4.43478,0,0-5.97311,3.00071-6.45926,8.73009-.76748,9.0476,5.38223,16.27623,14.24,19.66317-17.559,4.34149-29.39059,20.57674-33.99445,35.578-9.1365,29.77071-7.75708,53.357-8.89207,84.21809-.65928,17.9281-8.96477,40.35552-28.49176,21.11749,5.413,22.49372,28.73665,33.86939,51.00685,25.71453,13.99152-5.12328,18.59885-24.04932,22.935-43.67805-1.16287,7.44218,12.10547,27.02375,34.23706,11.92532-19.95843-7.79331-12.51262-23.54882-10.578-33.4864,4.58912-23.57231,14.50434-36.22875,40.791-33.25176,8.79115.9956,16.92593,2.96018,25.03372,7.85224,5.84572,3.52767,9.14424,8.21205,16.83029,7.16437a142.35484,142.35484,0,0,1,13.54623-10.93465c2.66822-11.67536,1.77017-27.67294,15.53959-28.76409C248.69192,132.56379,242.69942,134.76054,236.63516,140.29343Z" transform="translate(-42.22579 -63)"/><path class="cls-20" d="M166.90887,78.39919c-1.36076-.04075-41.14782,2.47762-67.18154,4.60688,1.48536,6.56034,6.8137,11.70835,13.87663,14.40919-17.559,4.34161-29.39025,20.577-33.99434,35.57817-7.60979,24.7958-7.92563,45.31507-8.47411,69.30729.31478-2.89044.51856-7.32355.63834-13.62151.59181-31.11865,3.73222-81.81691,64.35025-87.94576,60.59244-6.12618,83.67292,30.26632,90.00174,54.45628,6.32888,24.18948,9.96359,19.23623,9.96359,19.23623l-1.51959-1.51356S247.398,80.80818,166.90887,78.39919Z" transform="translate(-42.22579 -63)"/><path class="cls-19" d="M252.5723,140.98431c-2.8756-8.30673-5.9701-4.77568-12.03434.7571a79.90477,79.90477,0,0,0-1.95282-22.56417,47.37031,47.37031,0,0,0-10.356-20.30865,20.74541,20.74541,0,0,0-3.27823-5.34762c-24.06541-25.07042-59.38954-26.90122-90.35149-19.41252-10.24916,2.479-23.31573-1.70341-31.20878-10.39171,0,0-3.5404,8.3061-4.02655,14.03548-.76748,9.0476,5.35764,15.74079,14.21538,19.12785,36.61128-10.48182,78.29416-14.31213,102.06412,14.5355a79.3421,79.3421,0,0,1,18.08371,59.90864c.71713-.53192,1.47481-1.08854,2.30063-1.6896C238.69615,157.95925,238.80288,142.07546,252.5723,140.98431Z" transform="translate(-42.22579 -63)"/><path class="cls-12" d="M249.44685,132.604a10.683,10.683,0,0,0-7.66264,2.07794,78.89576,78.89576,0,0,0-2.00985-21.57985,48.06864,48.06864,0,0,0-10.42571-20.47279,21.25532,21.25532,0,0,0-3.44914-4.41651c-12.39918-12.91709-28.55239-20.58441-48.01-22.788-13.31291-1.50769-27.72254-.41933-42.82791,3.23387a49.99031,49.99031,0,0,1-16.97038,1.42323c-6.09307-.68955-10.91214-2.94367-14.32386-6.6993L103.42,63c-.00886.2283-.01745.45429-.02931.71674-.2595,5.7831,3.45665,23.3057,33.32177,14.6161s82.95355,6.6513,93.14312,41.3384c10.18949,34.68671,4.4324,49.85569,4.4324,49.85569s.94229-.13978,2.37515-.38766c1.62472-6.73818,7.55105-25.63759,22.98277-26.86028l.64935-.05168-.21107-.60848A13.16209,13.16209,0,0,0,249.44685,132.604Z" transform="translate(-42.22579 -63)"/><path class="cls-21" d="M184.56043,148.04263l.00948-.24208c-43.71762-15.011-68.73121,7.30591-75.50683,39.06571s-1.96988,63.15423-24.72376,71.9787c-22.75382,8.824-34.8821-9.31581-42.11353-20.516,5.413,22.49372,28.73667,33.86927,51.00685,25.71453,13.59782-4.97923,18.33212-22.99543,22.568-42.023.00831-.06235.01683-.12233.02515-.1848,1.73252-12.97446,4.59837-23.48783,8.19948-31.99386-.04089.239-.08331.47822-.123.71687-4.48334,26.87208,2.19551,52.66912,26.5024,41.732-19.95843-7.79331-12.51262-23.54882-10.578-33.4864,4.58914-23.57244,14.50447-36.22874,40.791-33.25176,8.79115.9956,16.92593,2.96018,25.03372,7.85224,2.73171,1.64837,4.90908,3.54348,7.236,4.9942l2.6409-2.27779C208.27343,166.34354,199.79566,153.57191,184.56043,148.04263Z" transform="translate(-42.22579 -63)"/><path class="cls-12" d="M216.26877,119.57721c-6.895-11.56156.044-9.46107-14.47821-19.51993s-59.10378-29.30692-104.69611,5.49747l3.019,3.76023,21.63236-12.01219,27.26657-5.58918L172.37574,96.726,194.94,104.01441l12.99642,11.72681Z" transform="translate(-42.22579 -63)"/><path class="cls-14" d="M252.26426,214.50073c4.02163,7.71893,4.66373,15.20755,2.00792,16.44554-2.65616,1.23782-8.71694-3.76978-11.62632-11.96327-4.80273-13.52582-9.37844-27.0619-6.72207-28.29933C238.57951,189.44531,244.096,198.82285,252.26426,214.50073Z" transform="translate(-42.22579 -63)"/><path class="cls-22" d="M262.95938,334.27172l2.88587-34.63043,81.66329-4.65925c-7.58738-38.04075-33.69548-75.098-79.91977-77.09026-45.03156-1.94071-71.00438,29.80386-82.54786,73.0919-4.32651,16.22447-12.43087,28.80382-8.65761,46.17391,8.49028,39.08508,87.92,76.22656,155.837,49.05978,14.42935-5.77174-54.83152,11.54347-66.375-25.97283Z" transform="translate(-42.22579 -63)"/><path class="cls-14" d="M236.23724,296.17524A11.77749,11.77749,0,1,1,225.89043,283.288,11.76453,11.76453,0,0,1,236.23724,296.17524Z" transform="translate(-42.22579 -63)"/><path class="cls-13" d="M230.57575,295.53407a6.07907,6.07907,0,1,1-5.34086-6.65123A6.07285,6.07285,0,0,1,230.57575,295.53407Z" transform="translate(-42.22579 -63)"/><path class="cls-14" d="M345.61383,261.33421s2.29359,9.88922,5.4749,10.57264c32.75166,7.02673,73.47934,11.63917,73.47934,11.63917s-14.667,24.87806-133.63695,23.01513c-13.44486-.21072-30.84362-9.42633-36.57022-17.41092-6.57574-9.16831-14.86436-34.76755-3.68093-40.22541,10.28122-5.01837,20.62434,6.18558,27.49573,8.55655,14.13784,4.87865,41.43846,6.35136,54.767,5.73552C335.5752,263.09486,345.61383,261.33421,345.61383,261.33421Z" transform="translate(-42.22579 -63)"/><path class="cls-13" d="M261.61788,259.75371a4.16828,4.16828,0,1,1-3.66126-4.56217A4.16228,4.16228,0,0,1,261.61788,259.75371Z" transform="translate(-42.22579 -63)"/><path class="cls-13" d="M350.98132,271.89468,268.1907,285.74035s5.52138,9.48515,20.578,10.6238c88.19038,6.67043,127.35659-13.84079,127.35659-13.84079Z" transform="translate(-42.22579 -63)"/><polygon class="cls-13" points="225.201 218.902 306.446 206.612 305.126 203.85 223.602 214.048 225.201 218.902"/><path class="cls-13" d="M381.05163,302.76133a1.50385,1.50385,0,0,1-1.33545-1.66293,8.67081,8.67081,0,0,0-2.51972-7.65392,1.49061,1.49061,0,0,1,.132-2.121,1.5355,1.5355,0,0,1,2.1458.1283,11.575,11.575,0,0,1,3.2614,9.98857A1.51725,1.51725,0,0,1,381.05163,302.76133Z" transform="translate(-42.22579 -63)"/><path class="cls-13" d="M364.20171,305.22359a1.50082,1.50082,0,0,1-1.21015-1.7532,8.6623,8.6623,0,0,0-1.95631-7.81348,1.49141,1.49141,0,0,1,.28651-2.10572,1.53139,1.53139,0,0,1,2.13027.28007,11.56054,11.56054,0,0,1,2.52638,10.19484A1.52008,1.52008,0,0,1,364.20171,305.22359Z" transform="translate(-42.22579 -63)"/><path class="cls-13" d="M346.97736,307.01523a1.49891,1.49891,0,0,1-1.1845-1.77032,8.66266,8.66266,0,0,0-1.845-7.84018,1.48983,1.48983,0,0,1,.3156-2.10094,1.533,1.533,0,0,1,2.12615.30989,11.5563,11.5563,0,0,1,2.38106,10.22856A1.522,1.522,0,0,1,346.97736,307.01523Z" transform="translate(-42.22579 -63)"/><path class="cls-13" d="M327.85138,307.909a1.49887,1.49887,0,0,1-1.08888-1.83044,8.65946,8.65946,0,0,0-1.41654-7.92726,1.49017,1.49017,0,0,1,.429-2.08118,1.53046,1.53046,0,0,1,2.10544.42152,11.54745,11.54745,0,0,1,1.82374,10.34048A1.52164,1.52164,0,0,1,327.85138,307.909Z" transform="translate(-42.22579 -63)"/><path class="cls-13" d="M307.97839,307.71164a1.49634,1.49634,0,0,1-1.00935-1.874,8.65468,8.65468,0,0,0-1.08151-7.97944,1.49094,1.49094,0,0,1,.51706-2.06181,1.52917,1.52917,0,0,1,2.08531.50787,11.55049,11.55049,0,0,1,1.38736,10.40677A1.527,1.527,0,0,1,307.97839,307.71164Z" transform="translate(-42.22579 -63)"/><path class="cls-13" d="M397.52024,299.447a1.50491,1.50491,0,0,1-1.33558-1.66405,8.6773,8.6773,0,0,0-2.51884-7.65394,1.48674,1.48674,0,0,1,.13137-2.11946,1.53417,1.53417,0,0,1,2.14473.12781,11.57151,11.57151,0,0,1,3.26276,9.98761A1.51855,1.51855,0,0,1,397.52024,299.447Z" transform="translate(-42.22579 -63)"/><path class="cls-13" d="M413.16774,294.70529a1.50459,1.50459,0,0,1-1.33446-1.66393,8.67408,8.67408,0,0,0-2.5194-7.65351,1.49,1.49,0,0,1,.13125-2.12058,1.53512,1.53512,0,0,1,2.14577.12854,11.57045,11.57045,0,0,1,3.2619,9.98751A1.51814,1.51814,0,0,1,413.16774,294.70529Z" transform="translate(-42.22579 -63)"/><path class="cls-13" d="M184.81876,339.08609a2.1781,2.1781,0,1,1-1.92508-2.17585A2.07418,2.07418,0,0,1,184.81876,339.08609Z" transform="translate(-42.22579 -63)"/><path class="cls-13" d="M199.2481,359.28717a2.17811,2.17811,0,1,1-1.92507-2.17584A2.07416,2.07416,0,0,1,199.2481,359.28717Z" transform="translate(-42.22579 -63)"/><path class="cls-13" d="M222.33506,376.60239a2.1781,2.1781,0,1,1-1.92508-2.17585A2.07417,2.07417,0,0,1,222.33506,376.60239Z" transform="translate(-42.22579 -63)"/><path class="cls-13" d="M288.71005,391.03174a2.1781,2.1781,0,1,1-1.92507-2.17585A2.07416,2.07416,0,0,1,288.71005,391.03174Z" transform="translate(-42.22579 -63)"/><path class="cls-13" d="M254.07962,388.14587a2.1781,2.1781,0,1,1-1.92507-2.17585A2.07416,2.07416,0,0,1,254.07962,388.14587Z" transform="translate(-42.22579 -63)"/><path class="cls-14" d="M260.07352,290.98368c-2.88587,11.54347-8.88374,49.1167,5.77173,72.14673,20.20109,31.74456,51.94565,25.97283,66.375,25.97283.88,0,6.314-.30983,5.77174-2.88587-.83728-3.97715-6.20837-3.49818-8.65761-2.88587-11.54348,2.88587-47.15586-1.71842-57.71739-20.20109-11.54347-20.20108-2.88587-63.48912-5.77174-69.26086C265.2589,292.69685,260.21363,290.4232,260.07352,290.98368Z" transform="translate(-42.22579 -63)"/><path class="cls-22" d="M219.49819,188.02205a5.18868,5.18868,0,0,1-2.22139-.79,5.07831,5.07831,0,0,1-1.52358-7.07879c4.38347-6.67236,16.53339-11.59244,24.07289-9.7472a5.10825,5.10825,0,0,1,3.77706,6.19835,5.19466,5.19466,0,0,1-6.278,3.73865c-3.31136-.81-10.89706,2.35493-12.88157,5.37618A5.211,5.211,0,0,1,219.49819,188.02205Z" transform="translate(-42.22579 -63)"/></g></g></svg>